<?xml version="1.0" encoding="utf-8"?>
<!-- Generator: Adobe Illustrator 16.0.0, SVG Export Plug-In . SVG Version: 6.00 Build 0)  -->
<!DOCTYPE svg PUBLIC "-//W3C//DTD SVG 1.1//EN" "http://www.w3.org/Graphics/SVG/1.1/DTD/svg11.dtd">
<svg version="1.1" id="Layer_1" xmlns="http://www.w3.org/2000/svg" xmlns:xlink="http://www.w3.org/1999/xlink" x="0px" y="0px"
	 width="454.876px" height="233.725px" viewBox="0 0 454.876 233.725" enable-background="new 0 0 454.876 233.725"
	 xml:space="preserve">
<rect x="615.304" y="195.37" fill-rule="evenodd" clip-rule="evenodd" fill="#00FFF8" width="612" height="545.401"/>
<path fill-rule="evenodd" clip-rule="evenodd" fill="#FEFEFE" d="M18.536,403.072c190.031,0,380.065,0,570.091,0
	c-0.171,0.243,0.403,0.824-0.396,0.8c-1.053-0.033-2.109-0.01-3.164-0.01c-187.655,0-375.315,0.004-562.969-0.044
	C20.941,403.812,19.417,404.727,18.536,403.072z"/>
<g>
	<path fill-rule="evenodd" clip-rule="evenodd" stroke="#000000" stroke-miterlimit="10" d="M-237.569,224.43
		c-4.736,4.369-9.397,8.817-14.237,13.069c-2.031,1.786-1.717,2.949,0,4.745c5.048,5.285,9.915,10.753,15.594,16.953
		c-4.322,0-7.548-0.023-10.772,0.01c-1.394,0.015-2.101-0.959-2.891-1.821c-2.49-2.721-4.901-5.517-7.459-8.175
		c-0.928-0.965-1.66-3.107-3.195-2.336c-1.767,0.892-3.558,2.341-3.891,4.663c-0.134,0.905-0.045,1.841-0.05,2.762
		c-0.021,4.804-1.762,6.065-6.458,4.918c-1.435-0.346-1.52-1.237-1.52-2.311c-0.004-15.548-0.026-31.092,0.011-46.635
		c0.006-3.742,2.954-1.969,4.686-2.287c2.176-0.401,3.37,0.302,3.331,2.92c-0.134,8.668-0.05,17.349-0.05,27.226
		c3.595-3.695,6.907-6.338,9.236-9.674c4.328-6.224,10.16-6.408,16.587-5.354C-238.293,223.543-237.929,223.989-237.569,224.43z"/>
	<path fill-rule="evenodd" clip-rule="evenodd" stroke="#000000" stroke-miterlimit="10" d="M-295.988,222.079
		c2.921,0.035,5.767,0.544,8.545,1.415c5.554,1.742,5.708,2.321,2.794,7.166c-0.984,1.628-1.842,1.826-3.475,1.074
		c-2.78-1.292-5.751-1.875-8.85-1.578c-6.234,0.589-10.163,4.537-10.317,10.387c-0.158,6.072,3.678,10.392,9.945,11.154
		c3.508,0.425,6.925-0.089,9.919-1.93c3.736-2.292,3.618,1.351,4.849,2.905c1.609,2.019,0.719,3.211-1.339,4.201
		c-6.045,2.91-12.304,3.894-18.817,2.108c-9.058-2.488-14.276-11.01-12.925-20.849C-314.265,228.037-306.812,221.95-295.988,222.079
		z"/>
	<path fill-rule="evenodd" clip-rule="evenodd" stroke="#000000" stroke-miterlimit="10" d="M-306.382,317.21
		c-10.994,0.094-18.404-7.927-18.03-19.503c0.373-11.49,7.972-18.848,18.906-18.135c2.338,0.152,4.721,0.628,6.962,1.335
		c5.05,1.583,5.11,2.088,2.719,6.794c-0.889,1.753-1.67,2.436-3.56,1.341c-1.604-0.925-3.432-1.292-5.307-1.42
		c-7.129-0.509-11.857,3.618-11.946,10.491c-0.09,7.032,4.721,11.492,11.901,11.064c2.021-0.118,4.02-0.559,5.611-1.696
		c2.399-1.712,3.267-0.867,4.607,1.424c1.98,3.389,0.841,4.878-2.295,6.156C-299.907,316.314-303.031,317.22-306.382,317.21z"/>
	<path fill-rule="evenodd" clip-rule="evenodd" stroke="#000000" stroke-miterlimit="10" d="M-179.696,244.456
		c0-3.692-0.218-7.403,0.063-11.074c0.253-3.263-1.037-4.267-4.053-3.896c-2.36,0.288-3.971-0.04-3.919-3.217
		c0.051-2.8,0.921-3.929,3.635-3.468c3.58,0.604,4.828-0.965,4.291-4.386c-0.119-0.771,0.097-1.597-0.037-2.364
		c-0.707-4.004,1.168-4.969,4.839-4.692c2.325,0.173,3.441,0.747,3.164,3.202c-0.119,1.044,0.099,2.123-0.039,3.163
		c-0.5,3.701,0.436,5.908,4.778,5.086c2.485-0.47,3.111,0.836,3.104,3.167c-0.016,2.351-0.385,3.969-3.201,3.509
		c-3.88-0.629-4.906,1.034-4.752,4.801c0.303,7.239-0.094,14.509,0.165,21.757c0.132,3.708-2.109,3.064-4.312,3.207
		c-2.484,0.159-3.985-0.247-3.786-3.325C-179.508,252.121-179.696,248.282-179.696,244.456z"/>
	<path fill-rule="evenodd" clip-rule="evenodd" stroke="#000000" stroke-miterlimit="10" d="M-179.337,301.721
		c0-3.826-0.14-7.656,0.051-11.471c0.132-2.613-0.791-3.667-3.37-3.295c-2.551,0.371-3.813-0.346-3.774-3.335
		c0.039-2.786,0.934-3.915,3.653-3.494c2.848,0.436,3.794-0.871,3.467-3.563c-0.142-1.172,0.136-2.399-0.052-3.557
		c-0.6-3.653,1.062-4.528,4.423-4.281c2.139,0.154,3.227,0.608,2.988,2.924c-0.122,1.173,0.104,2.386-0.046,3.553
		c-0.438,3.449,0.253,5.651,4.48,4.954c2.948-0.49,2.593,1.732,2.643,3.583c0.045,1.861-0.025,3.662-2.624,3.196
		c-4.185-0.742-4.657,1.431-4.542,4.915c0.232,7.244-0.065,14.509,0.13,21.759c0.078,3.092-1.635,2.964-3.753,2.979
		c-2.136,0.011-3.894,0.075-3.72-2.993C-179.167,309.649-179.337,305.68-179.337,301.721z"/>
	<path fill-rule="evenodd" clip-rule="evenodd" stroke="#000000" stroke-miterlimit="10" d="M-242.537,298.069
		c0-4.993,0.142-9.991-0.056-14.979c-0.119-3.014,1.546-3.03,3.717-3.004c2.108,0.024,3.781-0.1,3.73,2.969
		c-0.158,10.252-0.146,20.505-0.007,30.754c0.046,3.267-2,2.682-3.918,2.751c-1.939,0.064-3.615,0.173-3.517-2.721
		C-242.404,308.589-242.537,303.33-242.537,298.069z"/>
	<path fill-rule="evenodd" clip-rule="evenodd" stroke="#000000" stroke-miterlimit="10" d="M-234.213,270.782
		c-0.145,2.375-1.581,4.147-4.54,4.346c-2.766,0.188-5.046-2.123-4.867-4.959c0.183-2.895,1.785-4.582,4.758-4.651
		C-236.163,265.458-234.237,267.486-234.213,270.782z"/>
	<path fill-rule="evenodd" clip-rule="evenodd" stroke="#000000" stroke-miterlimit="10" d="M-378.811,299.009
		c6.398-5.449,6.67-12.861,4.646-20.363c-1.816-6.74-6.938-9.768-13.574-10.105c-6.705-0.336-13.439-0.208-20.16-0.336
		c-1.735-0.03-2.256,0.792-2.252,2.415c0.031,14.504,0.065,29.014-0.019,43.523c-0.02,3.195,2.163,2.394,3.805,2.354
		c1.729-0.044,4.277,1.025,4.146-2.449c-0.108-2.896,0.06-5.805-0.043-8.706c-0.064-1.899,0.713-2.4,2.543-2.508
		c9.115-0.55,9.115-0.604,13.484,7.63c0.742,1.4,1.556,2.767,2.212,4.202c0.629,1.385,1.595,1.944,3.104,1.895
		c2.217-0.074,4.442-0.02,7.453-0.02c-2.396-4.418-4.178-8.091-6.321-11.536C-381.338,302.512-381.36,301.181-378.811,299.009z
		 M-390.073,294.283c-3.015,0.085-6.049-0.104-9.057,0.065c-2.366,0.133-3.376-0.604-3.147-3.079
		c0.183-1.955,0.039-3.938,0.039-5.908c0-8.601,0-8.605,8.594-8.601c1.313,0,2.629-0.054,3.935,0.034
		c5.646,0.396,8.398,3.38,8.259,8.888C-381.583,291.126-384.542,294.115-390.073,294.283z"/>
	<path fill-rule="evenodd" clip-rule="evenodd" stroke="#000000" stroke-miterlimit="10" d="M-386.104,210.944
		c-6.721-0.212-13.457,0.055-20.177-0.098c-2.608-0.065-3.419,0.826-3.366,3.389c0.144,6.854,0.049,13.713,0.049,20.571
		c0,7.121-0.019,14.242,0.021,21.364c0.005,1.232-0.331,2.598,1.614,3.048c5.181,1.203,6.958-0.069,6.962-5.26
		c0.006-0.925,0.119-1.866-0.02-2.766c-0.568-3.697,0.672-5.271,4.656-4.89c3.662,0.352,7.385,0.198,11.07,0.03
		c8.947-0.4,14.88-5.167,16.558-13.104C-365.965,220.139-372.729,211.36-386.104,210.944z M-386.882,237.835
		c-3.554,0.069-7.12-0.158-10.659,0.069c-2.875,0.188-3.731-0.969-3.489-3.638c0.164-1.825,0.03-3.681,0.03-5.522
		c0-9.327,0-9.327,9.193-9.327c1.713,0,3.426-0.05,5.132,0.034c6.345,0.307,9.433,3.396,9.339,9.265
		C-377.426,234.55-380.702,237.716-386.882,237.835z"/>
	<path fill-rule="evenodd" clip-rule="evenodd" stroke="#000000" stroke-miterlimit="10" d="M-197.948,282.387
		c-5.794-3.944-11.883-3.632-18.02-0.712c-1.142,0.545-1.962,1.905-3.07-0.594c-0.919-2.079-3.82-0.956-5.788-0.816
		c-1.888,0.138-1.297,2-1.302,3.202c-0.051,7.378-0.024,14.762-0.019,22.14c0,7.775,0.081,15.553-0.043,23.328
		c-0.047,3.093,1.986,2.509,3.734,2.484c1.706-0.02,3.895,0.699,3.781-2.424c-0.121-3.424,0.15-6.864-0.07-10.279
		c-0.214-3.34,0.232-4.28,3.919-2.82c9.015,3.563,17.942,0.187,22.001-7.74C-188.311,299.331-190.609,287.385-197.948,282.387z
		 M-208.739,309.189c-7.418,0.044-9.955-2.716-9.955-10.817c0-7.429,3.3-10.864,10.396-10.819c5.934,0.04,10.04,4.483,9.995,10.807
		C-198.346,304.867-202.473,309.149-208.739,309.189z"/>
	<path fill-rule="evenodd" clip-rule="evenodd" stroke="#000000" stroke-miterlimit="10" d="M-193.136,241.091
		c-0.346-9.784-6.932-17.339-16.558-18.814c-10.653-1.628-20.141,4.479-22.263,14.34c-2.236,10.397,3.117,19.394,13.41,22.209
		c6.403,1.752,12.771,1.336,19.032-0.94c2-0.728,3.37-1.608,2.068-3.978c-1.006-1.817-0.654-5.039-4.553-3.475
		c-4.108,1.648-8.489,1.836-12.843,0.866c-2.761-0.613-5.255-1.781-7.063-4.047c-0.538-0.683-1.435-1.411-0.89-2.41
		c0.441-0.816,1.418-0.475,2.152-0.485c4.088-0.03,8.171-0.016,12.259-0.016c4.087,0,8.181-0.128,12.257,0.045
		C-193.549,244.496-193.052,243.368-193.136,241.091z M-204.322,237.301c-2.764-0.075-5.529-0.02-8.297-0.025
		c-2.895-0.006-5.796-0.015-8.688,0c-1.797,0.005-2.07-0.757-1.154-2.173c2.291-3.548,5.762-4.908,9.77-5.002
		c4.027-0.1,7.521,1.177,9.871,4.71C-201.584,236.672-202.231,237.351-204.322,237.301z"/>
	<path fill-rule="evenodd" clip-rule="evenodd" stroke="#000000" stroke-miterlimit="10" d="M-265.469,279.774
		c-9.884-1.559-18.187,4.053-20.333,13.742c-2.371,10.688,2.721,20.106,12.434,22.813c5.206,1.449,10.443,1.266,15.544-0.52
		c2.094-0.727,4.746-0.994,3.356-4.736c-1.131-3.042-2.204-4.582-5.503-2.781c-0.892,0.486-2.021,0.645-3.055,0.743
		c-5.149,0.489-10.06,0.089-13.665-4.301c-0.55-0.673-1.458-1.519-0.8-2.405c0.337-0.449,1.406-0.475,2.15-0.479
		c3.685-0.05,7.373-0.025,11.063-0.025c3.687-0.006,7.372-0.029,11.059,0.009c1.486,0.01,2.401-0.246,2.619-2.079
		C-249.517,290.695-256.527,281.184-265.469,279.774z M-261.011,294.798c-2.494-0.084-4.992-0.02-7.486-0.02
		c-2.366,0-4.731-0.044-7.096,0.016c-1.976,0.048-2.821-0.481-1.59-2.461c2.064-3.325,5.151-4.75,8.95-4.79
		c3.646-0.04,6.677,1.217,8.696,4.424C-258.413,293.75-258.413,294.882-261.011,294.798z"/>
	<path fill-rule="evenodd" clip-rule="evenodd" stroke="#000000" stroke-miterlimit="10" d="M-344.725,279.863
		c-9.968-1.896-18.726,3.742-20.928,13.46c-2.458,10.861,2.73,20.407,12.648,23.061c5.221,1.4,10.403,1.034,15.568-0.6
		c3.113-0.979,4.296-2.316,2.749-5.675c-0.991-2.173-1.715-3.366-4.228-2.119c-1.155,0.574-2.512,0.876-3.806,1.015
		c-5.29,0.553-10.334,0.158-13.981-4.459c-0.463-0.589-1.139-1.271-0.781-2.104c0.391-0.91,1.355-0.593,2.078-0.6
		c3.691-0.038,7.384-0.019,11.075-0.019c3.69,0,7.383-0.006,11.074,0c1.338,0,2.526,0.119,2.841-1.822
		C-329.033,291.552-336.106,281.5-344.725,279.863z M-340.762,294.794c-2.628-0.065-5.254-0.016-7.884-0.016
		c-2.362,0-4.729-0.044-7.091,0.016c-1.949,0.048-2.379-0.674-1.391-2.327c2.098-3.513,5.33-4.943,9.265-4.929
		c3.652,0.015,6.65,1.371,8.581,4.632C-338.258,293.892-338.519,294.842-340.762,294.794z"/>
	<path fill-rule="evenodd" clip-rule="evenodd" stroke="#000000" stroke-miterlimit="10" d="M-342,222.079
		c-11.568,0.039-19.861,8.056-19.762,19.097c0.104,10.792,8.437,18.681,19.793,18.719c11.56,0.04,19.934-7.927,19.917-18.952
		C-322.066,229.877-330.35,222.045-342,222.079z M-341.781,251.815c-6.744,0.044-11.476-4.439-11.471-10.868
		c0.009-6.428,4.78-10.966,11.465-10.916c6.514,0.049,11.184,4.479,11.297,10.713C-330.371,247.163-335.067,251.766-341.781,251.815
		z"/>
	<path fill-rule="evenodd" clip-rule="evenodd" fill="none" stroke="#000000" stroke-miterlimit="10" d="M-528.861,192.194
		c-1.807-0.262-3.652-0.257-5.483-0.361c0,0.079,0,0.163-0.004,0.247c-1.832,0-3.672-0.099-5.498,0.035
		c-1.073,0.084-2.119,0.707-2.238,1.885c-0.118,1.237,0.847,1.92,1.95,2.088c3.781,0.579,7.572,0.594,11.347-0.015
		c0.961-0.158,1.749-0.718,1.841-1.776C-526.833,192.971-527.823,192.348-528.861,192.194z"/>
	<path fill-rule="evenodd" clip-rule="evenodd" fill="none" stroke="#000000" stroke-miterlimit="10" d="M-512.026,178.561
		c5.652,0.025,11.303,0.01,16.954,0.01c5.652,0.004,11.308,0.03,16.959-0.01c1.589-0.014,3.579-0.168,3.667-2.132
		c0.094-2.079-1.985-2.267-3.514-2.276c-11.437-0.064-22.873-0.059-34.309,0.004c-1.539,0.01-3.622,0.237-3.479,2.311
		C-515.619,178.373-513.645,178.552-512.026,178.561z"/>
	<path fill-rule="evenodd" clip-rule="evenodd" fill="none" stroke="#000000" stroke-miterlimit="10" d="M-503.217,166.492
		c-1.584,0.005-3.672,0.064-3.692,2.054c-0.03,2.305,2.208,2.217,3.889,2.247c4.079,0.059,8.156,0.015,12.228,0.021
		c4.078,0,8.156,0.035,12.228-0.021c1.684-0.02,3.985,0.128,4.079-2.063c0.099-2.296-2.212-2.226-3.881-2.232
		C-486.65,166.447-494.934,166.457-503.217,166.492z"/>
	<path fill-rule="evenodd" clip-rule="evenodd" fill="none" stroke="#000000" stroke-miterlimit="10" d="M-528.559,184.618
		c-3.895-0.757-7.819-0.688-11.718-0.049c-0.917,0.148-1.767,0.732-1.808,1.811c-0.048,1.316,0.986,1.895,2.015,2.053
		c1.807,0.278,3.647,0.303,5.676,0.446c1.772-0.148,3.741-0.232,5.677-0.509c0.92-0.134,1.741-0.723,1.791-1.816
		C-526.877,185.46-527.604,184.801-528.559,184.618z"/>
	<path fill-rule="evenodd" clip-rule="evenodd" fill="none" stroke="#000000" stroke-miterlimit="10" d="M-512.136,160.469
		c5.538,0.04,11.07,0.015,16.608,0.02c5.798,0,11.598,0.024,17.398-0.015c1.588-0.015,3.628-0.109,3.672-2.112
		c0.05-2.055-2.009-2.178-3.583-2.183c-11.333-0.045-22.67-0.045-34.007-0.01c-1.588,0.005-3.636,0.129-3.681,2.113
		C-515.769,160.296-513.739,160.454-512.136,160.469z"/>
	<path fill-rule="evenodd" clip-rule="evenodd" fill="none" stroke="#000000" stroke-miterlimit="10" d="M-478.257,191.961
		c-11.173-0.038-22.348-0.033-33.522-0.009c-1.702,0.006-3.944,0.009-3.934,2.228c0.009,2.231,2.33,2.187,3.978,2.212
		c5.652,0.083,11.307,0.029,16.959,0.024c5.522-0.005,11.041,0.049,16.563-0.034c1.523-0.025,3.651-0.069,3.731-2.054
		C-474.387,192.027-476.564,191.967-478.257,191.961z"/>
	<path fill-rule="evenodd" clip-rule="evenodd" fill="none" stroke="#000000" stroke-miterlimit="10" d="M-477.729,184.247
		c-8.699-0.069-17.403-0.074-26.102,0.015c-1.392,0.015-3.212,0.352-3.123,2.276c0.084,1.832,1.836,2.108,3.276,2.143
		c4.215,0.089,8.438,0.03,12.658,0.035c4.351,0.004,8.7,0.064,13.05-0.024c1.573-0.031,3.523-0.243,3.518-2.306
		C-474.457,184.569-476.308,184.257-477.729,184.247z"/>
	<path fill-rule="evenodd" clip-rule="evenodd" fill="none" stroke="#000000" stroke-miterlimit="10" d="M-503.55,152.833
		c8.567,0.079,17.134,0.084,25.699-0.004c1.529-0.015,3.578-0.258,3.419-2.385c-0.129-1.693-1.915-1.995-3.414-2.01
		c-4.216-0.04-8.433-0.01-12.653-0.016c-4.345,0-8.695-0.024-13.045,0.016c-1.505,0.009-3.287,0.312-3.415,1.999
		C-507.122,152.562-505.088,152.818-503.55,152.833z"/>
	<path fill-rule="evenodd" clip-rule="evenodd" fill="none" stroke="#000000" stroke-miterlimit="10" d="M-540.362,160.182
		c1.931,0.252,3.891,0.307,5.805,0.435c1.995-0.128,3.954-0.177,5.89-0.42c0.949-0.119,1.727-0.841,1.727-1.855
		c0-1.005-0.748-1.757-1.708-1.886c-3.895-0.519-7.804-0.529-11.693,0.006c-0.951,0.128-1.728,0.84-1.743,1.856
		C-542.094,159.341-541.298,160.053-540.362,160.182z"/>
	<path fill-rule="evenodd" clip-rule="evenodd" fill="none" stroke="#000000" stroke-miterlimit="10" d="M-453.441,226.854
		c-5.28-0.05-10.559-0.109-15.834,0.005c-2.332,0.054-6.002-0.926-6.028,2.543c-0.019,3.181,3.573,2.455,5.766,2.325
		c2.969-0.173,3.444,1.143,3.409,3.716c-0.118,10.031-0.044,20.057-0.044,30.087c-0.006,6.77-1.434,8.24-8.403,8.27
		c-11.614,0.044-23.223,0.015-34.837,0.01c-11.085,0-22.17,0.069-33.25-0.039c-5.923-0.055-7.486-1.776-7.486-7.601
		c-0.01-9.63,0.191-19.27-0.101-28.895c-0.118-4.053,0.521-6.271,5.202-5.548c1.751,0.267,4.216,0.089,4.161-2.425
		c-0.054-2.396-2.379-2.444-4.246-2.459c-5.278-0.04-10.559-0.074-15.834,0.01c-2.237,0.034-5.676-0.723-5.671,2.499
		c0.004,3.331,3.533,2.46,5.69,2.375c2.826-0.113,3.574,0.9,3.539,3.627c-0.139,10.685,0.079,21.378-0.113,32.063
		c-0.095,4.963,2.27,7.937,6.457,9.853c2.929,1.341,6.077,1.658,9.278,1.652c11.085-0.019,22.165-0.01,33.25-0.01
		c10.689,0,21.376-0.014,32.066,0.016c2.91,0.004,5.81-0.016,8.65-0.738c6.289-1.604,9.032-5.106,9.046-11.575
		c0.016-9.634,0.004-19.27,0.004-28.899c0-5.513,0-5.498,5.474-5.934c1.713-0.133,3.835-0.164,3.74-2.509
		C-449.64,227.058-451.693,226.869-453.441,226.854z"/>
	<path fill-rule="evenodd" clip-rule="evenodd" stroke="#000000" stroke-miterlimit="10" d="M-425.476,206.645
		c-2.831-1.301-5.831-1.608-8.878-1.628c-5.67-0.03-11.35-0.203-17.014,0.059c-3.311,0.153-4.185-0.891-4.167-4.177
		c0.14-24.005,0.076-48.011,0.076-72.016c0-6.042-1.98-7.72-7.013-4.617c-8.794,5.423-17.037,5.462-25.554-0.159
		c-2.262-1.489-4.834-1.563-7.116-0.039c-8.655,5.784-17.207,5.77-25.852-0.025c-2.118-1.42-4.592-1.524-6.746-0.064
		c-8.778,5.958-17.284,5.611-26.26,0.055c-4.559-2.826-6.562-1.108-6.562,4.438c0.009,24.268-0.025,48.541,0.104,72.808
		c0.014,2.955-0.771,3.846-3.757,3.796c-7.245-0.129-14.529-0.242-21.744,0.316c-7.873,0.609-11.188,4.667-11.188,12.387
		c-0.004,30.597-0.004,61.199,0,91.801c0.005,6.293,2.652,9.708,8.784,11.332c2.563,0.682,5.195,0.786,7.848,0.786
		c24.135-0.025,48.273-0.013,72.414-0.013c24.138,0,48.273-0.012,72.412,0.013c2.919,0,5.804-0.148,8.596-1.058
		c5.448-1.783,8.05-5.034,8.057-10.343c0.029-31.261-0.016-62.52,0.049-93.781C-418.979,211.657-421.235,208.589-425.476,206.645z
		 M-550.947,130.649c7.071,4.85,14.009,4.182,20.869-0.351c3.831-2.534,7.596-2.464,11.332,0.059
		c7.072,4.771,14.124,4.81,21.225,0.07c3.875-2.588,7.79-2.647,11.699-0.045c0.218,0.148,0.495,0.208,0.712,0.352
		c6.442,4.286,12.89,4.479,19.429,0.153c2.34-1.549,3.542-1.415,3.523,2.029c-0.125,22.827-0.129,45.655,0.009,68.488
		c0.021,3.128-1.064,3.682-3.87,3.657c-13.984-0.124-27.975-0.059-41.964-0.059c-14.118,0-28.242-0.06-42.359,0.049
		c-2.678,0.02-3.663-0.678-3.647-3.523c0.095-22.962,0.069-45.923-0.009-68.884C-554.01,129.977-553.268,129.057-550.947,130.649z
		 M-426.491,308.767c0,6.162-1.469,7.716-7.674,7.726c-24.68,0.036-49.352,0.015-74.026,0.015c-24.278,0-48.562,0.01-72.838,0
		c-7.591-0.004-8.788-1.196-8.788-8.614c-0.005-30.217-0.005-60.437,0-90.653c0-5.31,1.677-7.131,7.085-7.131
		c49.749-0.04,99.497-0.04,149.239,0c5.365,0.005,7.001,1.821,7.001,7.215C-426.481,247.806-426.485,278.285-426.491,308.767z"/>
	<path fill-rule="evenodd" clip-rule="evenodd" fill="none" stroke="#000000" stroke-miterlimit="10" d="M-528.821,166.72
		c-3.772-0.435-7.552-0.456-11.318,0.01c-1.064,0.129-2.018,0.807-1.91,2.078c0.089,1.024,0.92,1.623,1.865,1.737
		c1.806,0.213,3.633,0.262,5.379,0.375c2.035-0.113,3.995-0.128,5.934-0.361c1.089-0.129,2.005-0.812,1.895-2.078
		C-527.066,167.467-527.867,166.828-528.821,166.72z"/>
	<path fill-rule="evenodd" clip-rule="evenodd" fill="none" stroke="#000000" stroke-miterlimit="10" d="M-539.978,178.365
		c1.812,0.227,3.658,0.221,5.488,0.315c1.836-0.094,3.683-0.089,5.493-0.322c1.05-0.133,2.064-0.736,2.05-2.014
		c-0.015-1.277-1-1.821-2.094-1.969c-3.652-0.48-7.319-0.504-10.967,0.02c-1.088,0.152-2.093,0.722-2.078,1.984
		C-542.071,177.632-541.027,178.226-539.978,178.365z"/>
	<path fill-rule="evenodd" clip-rule="evenodd" fill="none" stroke="#000000" stroke-miterlimit="10" d="M-539.511,152.725
		c1.687,0.203,3.4,0.192,5.29,0.282c1.52-0.094,3.232-0.114,4.918-0.327c1.208-0.148,2.45-0.663,2.355-2.147
		c-0.089-1.406-1.32-1.965-2.533-2.004c-3.275-0.104-6.556-0.129-9.833-0.025c-1.332,0.044-2.761,0.559-2.737,2.222
		C-542.029,152.186-540.679,152.581-539.511,152.725z"/>
</g>
<g>
	<path fill-rule="evenodd" clip-rule="evenodd" stroke="#000000" stroke-miterlimit="10" d="M367.017,114.208
		c-4.736,4.369-9.396,8.817-14.236,13.069c-2.031,1.786-1.717,2.949,0,4.745c5.047,5.285,9.914,10.753,15.594,16.953
		c-4.322,0-7.549-0.023-10.773,0.01c-1.393,0.015-2.1-0.959-2.891-1.821c-2.49-2.721-4.9-5.517-7.459-8.175
		c-0.928-0.965-1.66-3.107-3.195-2.336c-1.766,0.892-3.557,2.341-3.891,4.663c-0.133,0.905-0.045,1.841-0.049,2.762
		c-0.021,4.804-1.762,6.065-6.459,4.918c-1.434-0.346-1.52-1.237-1.52-2.311c-0.004-15.548-0.025-31.092,0.012-46.635
		c0.006-3.742,2.953-1.969,4.686-2.287c2.176-0.401,3.369,0.302,3.33,2.92c-0.133,8.668-0.049,17.349-0.049,27.226
		c3.594-3.695,6.906-6.338,9.236-9.674c4.328-6.224,10.16-6.408,16.586-5.354C366.292,113.322,366.658,113.767,367.017,114.208z"/>
	<path fill-rule="evenodd" clip-rule="evenodd" stroke="#000000" stroke-miterlimit="10" d="M308.599,111.857
		c2.92,0.035,5.766,0.544,8.545,1.415c5.553,1.742,5.707,2.321,2.793,7.166c-0.984,1.628-1.842,1.826-3.475,1.074
		c-2.779-1.292-5.75-1.875-8.85-1.578c-6.234,0.589-10.163,4.537-10.317,10.387c-0.158,6.072,3.678,10.392,9.946,11.154
		c3.508,0.425,6.924-0.089,9.918-1.93c3.736-2.292,3.619,1.351,4.85,2.905c1.609,2.019,0.719,3.211-1.34,4.201
		c-6.045,2.91-12.303,3.894-18.816,2.108c-9.058-2.488-14.277-11.01-12.925-20.849C290.321,117.815,297.774,111.729,308.599,111.857
		z"/>
	<path fill-rule="evenodd" clip-rule="evenodd" stroke="#000000" stroke-miterlimit="10" d="M298.204,206.989
		c-10.994,0.094-18.404-7.927-18.03-19.503c0.373-11.49,7.972-18.848,18.906-18.135c2.338,0.152,4.72,0.628,6.962,1.335
		c5.049,1.583,5.109,2.088,2.719,6.794c-0.889,1.753-1.67,2.436-3.561,1.341c-1.604-0.925-3.432-1.292-5.306-1.42
		c-7.129-0.509-11.857,3.618-11.946,10.491c-0.09,7.032,4.721,11.492,11.901,11.064c2.021-0.118,4.019-0.559,5.611-1.696
		c2.4-1.712,3.268-0.867,4.607,1.424c1.98,3.389,0.842,4.878-2.295,6.156C304.679,206.092,301.556,206.999,298.204,206.989z"/>
	<path fill-rule="evenodd" clip-rule="evenodd" stroke="#000000" stroke-miterlimit="10" d="M424.89,134.234
		c0-3.692-0.217-7.403,0.063-11.074c0.254-3.263-1.037-4.267-4.053-3.896c-2.359,0.288-3.971-0.04-3.918-3.217
		c0.051-2.8,0.92-3.929,3.635-3.468c3.58,0.604,4.828-0.965,4.291-4.386c-0.119-0.771,0.096-1.597-0.037-2.364
		c-0.707-4.004,1.168-4.969,4.838-4.692c2.326,0.173,3.441,0.747,3.164,3.202c-0.119,1.044,0.1,2.123-0.039,3.163
		c-0.5,3.701,0.436,5.908,4.779,5.086c2.484-0.47,3.111,0.836,3.104,3.167c-0.016,2.351-0.385,3.969-3.201,3.509
		c-3.879-0.629-4.906,1.034-4.752,4.801c0.303,7.239-0.094,14.509,0.166,21.757c0.131,3.708-2.109,3.064-4.313,3.207
		c-2.484,0.159-3.984-0.247-3.785-3.325C425.078,141.899,424.89,138.061,424.89,134.234z"/>
	<path fill-rule="evenodd" clip-rule="evenodd" stroke="#000000" stroke-miterlimit="10" d="M425.25,191.5
		c0-3.826-0.141-7.656,0.051-11.471c0.131-2.613-0.791-3.667-3.371-3.295c-2.551,0.371-3.813-0.346-3.773-3.335
		c0.039-2.786,0.934-3.915,3.652-3.494c2.848,0.436,3.795-0.871,3.467-3.563c-0.141-1.172,0.137-2.399-0.051-3.557
		c-0.6-3.653,1.061-4.528,4.422-4.281c2.139,0.154,3.227,0.608,2.988,2.924c-0.121,1.173,0.105,2.386-0.045,3.553
		c-0.438,3.449,0.252,5.651,4.48,4.954c2.947-0.49,2.592,1.732,2.643,3.583c0.045,1.861-0.025,3.662-2.625,3.196
		c-4.184-0.742-4.656,1.431-4.541,4.915c0.232,7.244-0.066,14.509,0.129,21.759c0.078,3.092-1.635,2.964-3.752,2.979
		c-2.137,0.011-3.895,0.075-3.721-2.993C425.419,199.428,425.25,195.458,425.25,191.5z"/>
	<path fill-rule="evenodd" clip-rule="evenodd" stroke="#000000" stroke-miterlimit="10" d="M362.05,187.847
		c0-4.993,0.141-9.991-0.057-14.979c-0.119-3.014,1.547-3.03,3.717-3.004c2.109,0.024,3.781-0.1,3.73,2.969
		c-0.158,10.252-0.146,20.505-0.006,30.754c0.045,3.267-2,2.682-3.918,2.751c-1.939,0.064-3.615,0.173-3.518-2.721
		C362.183,198.368,362.05,193.108,362.05,187.847z"/>
	<path fill-rule="evenodd" clip-rule="evenodd" stroke="#000000" stroke-miterlimit="10" d="M370.373,160.561
		c-0.145,2.375-1.58,4.147-4.539,4.346c-2.766,0.188-5.047-2.123-4.867-4.959c0.182-2.895,1.785-4.582,4.758-4.651
		C368.423,155.236,370.349,157.265,370.373,160.561z"/>
	<path fill-rule="evenodd" clip-rule="evenodd" stroke="#000000" stroke-miterlimit="10" d="M225.775,188.788
		c6.398-5.449,6.67-12.861,4.646-20.363c-1.816-6.74-6.938-9.768-13.574-10.105c-6.705-0.336-13.439-0.208-20.16-0.336
		c-1.735-0.03-2.256,0.792-2.252,2.415c0.031,14.504,0.065,29.014-0.019,43.523c-0.02,3.195,2.163,2.394,3.805,2.354
		c1.729-0.044,4.277,1.025,4.146-2.449c-0.108-2.896,0.06-5.805-0.043-8.706c-0.064-1.899,0.713-2.4,2.543-2.508
		c9.115-0.55,9.115-0.604,13.484,7.63c0.742,1.4,1.556,2.767,2.212,4.202c0.629,1.385,1.595,1.944,3.104,1.895
		c2.217-0.074,4.442-0.02,7.453-0.02c-2.396-4.418-4.178-8.091-6.321-11.536C223.248,192.291,223.227,190.959,225.775,188.788z
		 M214.514,184.061c-3.015,0.085-6.049-0.104-9.057,0.065c-2.366,0.133-3.376-0.604-3.147-3.079
		c0.183-1.955,0.039-3.938,0.039-5.908c0-8.601,0-8.605,8.594-8.601c1.313,0,2.629-0.054,3.935,0.034
		c5.646,0.396,8.398,3.38,8.259,8.888C223.004,180.904,220.045,183.894,214.514,184.061z"/>
	<path fill-rule="evenodd" clip-rule="evenodd" stroke="#000000" stroke-miterlimit="10" d="M218.482,100.723
		c-6.721-0.212-13.457,0.055-20.177-0.098c-2.608-0.065-3.419,0.826-3.366,3.389c0.144,6.854,0.049,13.713,0.049,20.571
		c0,7.121-0.019,14.242,0.021,21.364c0.005,1.232-0.331,2.598,1.614,3.048c5.181,1.203,6.958-0.069,6.962-5.26
		c0.006-0.925,0.119-1.866-0.02-2.766c-0.568-3.697,0.672-5.271,4.656-4.89c3.662,0.352,7.385,0.198,11.07,0.03
		c8.947-0.4,14.88-5.167,16.558-13.104C238.621,109.917,231.857,101.139,218.482,100.723z M217.704,127.613
		c-3.554,0.069-7.12-0.158-10.659,0.069c-2.875,0.188-3.731-0.969-3.489-3.638c0.164-1.825,0.03-3.681,0.03-5.522
		c0-9.327,0-9.327,9.193-9.327c1.713,0,3.426-0.05,5.132,0.034c6.345,0.307,9.433,3.396,9.339,9.265
		C227.16,124.328,223.885,127.495,217.704,127.613z"/>
	<path fill-rule="evenodd" clip-rule="evenodd" stroke="#000000" stroke-miterlimit="10" d="M406.638,172.165
		c-5.793-3.944-11.883-3.632-18.02-0.712c-1.141,0.545-1.961,1.905-3.07-0.594c-0.918-2.079-3.82-0.956-5.787-0.816
		c-1.889,0.138-1.297,2-1.303,3.202c-0.051,7.378-0.023,14.762-0.018,22.14c0,7.775,0.08,15.553-0.043,23.328
		c-0.047,3.093,1.986,2.509,3.734,2.484c1.705-0.02,3.895,0.699,3.781-2.424c-0.121-3.424,0.15-6.864-0.07-10.279
		c-0.215-3.34,0.232-4.28,3.918-2.82c9.016,3.563,17.943,0.187,22.002-7.74C416.275,189.109,413.978,177.163,406.638,172.165z
		 M395.847,198.967c-7.418,0.044-9.955-2.716-9.955-10.817c0-7.429,3.301-10.864,10.396-10.819
		c5.934,0.04,10.039,4.483,9.994,10.807C406.24,194.646,402.113,198.927,395.847,198.967z"/>
	<path fill-rule="evenodd" clip-rule="evenodd" stroke="#000000" stroke-miterlimit="10" d="M411.451,130.87
		c-0.346-9.784-6.932-17.339-16.559-18.814c-10.652-1.628-20.141,4.479-22.262,14.34c-2.236,10.397,3.117,19.394,13.41,22.209
		c6.402,1.752,12.771,1.336,19.031-0.94c2-0.728,3.371-1.608,2.068-3.978c-1.006-1.817-0.654-5.039-4.553-3.475
		c-4.107,1.648-8.488,1.836-12.842,0.866c-2.762-0.613-5.256-1.781-7.063-4.047c-0.539-0.683-1.436-1.411-0.891-2.41
		c0.441-0.816,1.418-0.475,2.152-0.485c4.088-0.03,8.172-0.016,12.26-0.016c4.086,0,8.18-0.128,12.256,0.045
		C411.037,134.274,411.535,133.146,411.451,130.87z M400.265,127.08c-2.764-0.075-5.529-0.02-8.297-0.025
		c-2.895-0.006-5.797-0.015-8.689,0c-1.797,0.005-2.07-0.757-1.154-2.173c2.291-3.548,5.762-4.908,9.77-5.002
		c4.027-0.1,7.521,1.177,9.871,4.71C403.001,126.45,402.355,127.129,400.265,127.08z"/>
	<path fill-rule="evenodd" clip-rule="evenodd" stroke="#000000" stroke-miterlimit="10" d="M339.117,169.553
		c-9.883-1.559-18.186,4.053-20.332,13.742c-2.371,10.688,2.721,20.106,12.434,22.813c5.205,1.449,10.443,1.266,15.543-0.52
		c2.094-0.727,4.746-0.994,3.357-4.736c-1.131-3.042-2.205-4.582-5.504-2.781c-0.891,0.486-2.02,0.645-3.055,0.743
		c-5.148,0.489-10.059,0.089-13.664-4.301c-0.551-0.673-1.459-1.519-0.801-2.405c0.338-0.449,1.406-0.475,2.15-0.479
		c3.686-0.05,7.373-0.025,11.064-0.025c3.686-0.006,7.371-0.029,11.059,0.009c1.486,0.01,2.4-0.246,2.619-2.079
		C355.07,180.474,348.06,170.962,339.117,169.553z M343.576,184.576c-2.494-0.084-4.992-0.02-7.486-0.02
		c-2.367,0-4.732-0.044-7.096,0.016c-1.977,0.048-2.822-0.481-1.59-2.461c2.064-3.325,5.15-4.75,8.949-4.79
		c3.646-0.04,6.678,1.217,8.697,4.424C346.173,183.528,346.173,184.661,343.576,184.576z"/>
	<path fill-rule="evenodd" clip-rule="evenodd" stroke="#000000" stroke-miterlimit="10" d="M259.861,169.642
		c-9.968-1.896-18.726,3.742-20.928,13.46c-2.458,10.861,2.73,20.407,12.648,23.061c5.221,1.4,10.403,1.034,15.568-0.6
		c3.113-0.979,4.296-2.316,2.749-5.675c-0.991-2.173-1.715-3.366-4.228-2.119c-1.155,0.574-2.512,0.876-3.806,1.015
		c-5.29,0.553-10.334,0.158-13.981-4.459c-0.463-0.589-1.139-1.271-0.781-2.104c0.391-0.91,1.355-0.593,2.078-0.6
		c3.691-0.038,7.384-0.019,11.075-0.019c3.69,0,7.383-0.006,11.074,0c1.338,0,2.526,0.119,2.841-1.822
		C275.554,181.33,268.48,171.279,259.861,169.642z M263.824,184.572c-2.628-0.065-5.254-0.016-7.884-0.016
		c-2.362,0-4.729-0.044-7.091,0.016c-1.949,0.048-2.379-0.674-1.391-2.327c2.098-3.513,5.33-4.943,9.265-4.929
		c3.652,0.015,6.65,1.371,8.581,4.632C266.328,183.67,266.067,184.621,263.824,184.572z"/>
	<path fill-rule="evenodd" clip-rule="evenodd" stroke="#000000" stroke-miterlimit="10" d="M262.586,111.857
		c-11.568,0.039-19.861,8.056-19.762,19.097c0.104,10.792,8.437,18.681,19.793,18.719c11.56,0.04,19.934-7.927,19.917-18.952
		C282.521,119.656,274.236,111.823,262.586,111.857z M262.806,141.594c-6.744,0.044-11.476-4.439-11.471-10.868
		c0.009-6.428,4.78-10.966,11.465-10.916c6.514,0.049,11.184,4.479,11.297,10.713C274.216,136.941,269.52,141.544,262.806,141.594z"
		/>
	<path fill-rule="evenodd" clip-rule="evenodd" fill="none" stroke="#000000" stroke-miterlimit="10" d="M75.725,81.973
		c-1.807-0.262-3.652-0.257-5.483-0.361c0,0.079,0,0.163-0.004,0.247c-1.832,0-3.672-0.099-5.498,0.035
		c-1.073,0.084-2.119,0.707-2.238,1.885c-0.118,1.237,0.847,1.92,1.95,2.088c3.781,0.579,7.572,0.594,11.347-0.015
		c0.961-0.158,1.749-0.718,1.841-1.776C77.754,82.75,76.764,82.126,75.725,81.973z"/>
	<path fill-rule="evenodd" clip-rule="evenodd" fill="none" stroke="#000000" stroke-miterlimit="10" d="M92.56,68.339
		c5.652,0.025,11.303,0.01,16.954,0.01c5.652,0.004,11.308,0.03,16.959-0.01c1.589-0.014,3.579-0.168,3.667-2.132
		c0.094-2.079-1.985-2.267-3.514-2.276c-11.437-0.064-22.873-0.059-34.309,0.004c-1.539,0.01-3.622,0.237-3.479,2.311
		C88.968,68.151,90.942,68.33,92.56,68.339z"/>
	<path fill-rule="evenodd" clip-rule="evenodd" fill="none" stroke="#000000" stroke-miterlimit="10" d="M101.369,56.27
		c-1.584,0.005-3.672,0.064-3.692,2.054c-0.03,2.305,2.208,2.217,3.889,2.247c4.079,0.059,8.156,0.015,12.228,0.021
		c4.078,0,8.156,0.035,12.228-0.021c1.684-0.02,3.985,0.128,4.079-2.063c0.099-2.296-2.212-2.226-3.881-2.232
		C117.937,56.226,109.652,56.235,101.369,56.27z"/>
	<path fill-rule="evenodd" clip-rule="evenodd" fill="none" stroke="#000000" stroke-miterlimit="10" d="M76.027,74.396
		c-3.895-0.757-7.819-0.688-11.718-0.049c-0.917,0.148-1.767,0.732-1.808,1.811c-0.048,1.316,0.986,1.895,2.015,2.053
		c1.807,0.278,3.647,0.303,5.676,0.446c1.772-0.148,3.741-0.232,5.677-0.509c0.92-0.134,1.741-0.723,1.791-1.816
		C77.709,75.238,76.982,74.58,76.027,74.396z"/>
	<path fill-rule="evenodd" clip-rule="evenodd" fill="none" stroke="#000000" stroke-miterlimit="10" d="M92.451,50.248
		c5.538,0.04,11.07,0.015,16.608,0.02c5.798,0,11.598,0.024,17.398-0.015c1.588-0.015,3.628-0.109,3.672-2.112
		c0.05-2.055-2.009-2.178-3.583-2.183c-11.333-0.045-22.67-0.045-34.007-0.01c-1.588,0.005-3.636,0.129-3.681,2.113
		C88.818,50.074,90.847,50.232,92.451,50.248z"/>
	<path fill-rule="evenodd" clip-rule="evenodd" fill="none" stroke="#000000" stroke-miterlimit="10" d="M126.33,81.739
		c-11.173-0.038-22.348-0.033-33.522-0.009c-1.702,0.006-3.944,0.009-3.934,2.228c0.009,2.231,2.33,2.187,3.978,2.212
		c5.652,0.083,11.307,0.029,16.959,0.024c5.522-0.005,11.041,0.049,16.563-0.034c1.523-0.025,3.651-0.069,3.731-2.054
		C130.199,81.805,128.022,81.746,126.33,81.739z"/>
	<path fill-rule="evenodd" clip-rule="evenodd" fill="none" stroke="#000000" stroke-miterlimit="10" d="M126.857,74.025
		c-8.699-0.069-17.403-0.074-26.102,0.015c-1.392,0.015-3.212,0.352-3.123,2.276c0.084,1.832,1.836,2.108,3.276,2.143
		c4.215,0.089,8.438,0.03,12.658,0.035c4.351,0.004,8.7,0.064,13.05-0.024c1.573-0.031,3.523-0.243,3.518-2.306
		C130.129,74.348,128.279,74.035,126.857,74.025z"/>
	<path fill-rule="evenodd" clip-rule="evenodd" fill="none" stroke="#000000" stroke-miterlimit="10" d="M101.036,42.612
		c8.567,0.079,17.134,0.084,25.699-0.004c1.529-0.015,3.578-0.258,3.419-2.385c-0.129-1.693-1.915-1.995-3.414-2.01
		c-4.216-0.04-8.433-0.01-12.653-0.016c-4.345,0-8.695-0.024-13.045,0.016c-1.505,0.009-3.287,0.312-3.415,1.999
		C97.465,42.34,99.498,42.597,101.036,42.612z"/>
	<path fill-rule="evenodd" clip-rule="evenodd" fill="none" stroke="#000000" stroke-miterlimit="10" d="M64.224,49.96
		c1.931,0.252,3.891,0.307,5.805,0.435c1.995-0.128,3.954-0.177,5.89-0.42c0.949-0.119,1.727-0.841,1.727-1.855
		c0-1.005-0.748-1.757-1.708-1.886c-3.895-0.519-7.804-0.529-11.693,0.006c-0.951,0.128-1.728,0.84-1.743,1.856
		C62.492,49.119,63.289,49.831,64.224,49.96z"/>
	<path fill-rule="evenodd" clip-rule="evenodd" fill="none" stroke="#000000" stroke-miterlimit="10" d="M151.145,116.633
		c-5.28-0.05-10.559-0.109-15.834,0.005c-2.332,0.054-6.002-0.926-6.028,2.543c-0.019,3.181,3.573,2.455,5.766,2.325
		c2.969-0.173,3.444,1.143,3.409,3.716c-0.118,10.031-0.044,20.057-0.044,30.087c-0.006,6.77-1.434,8.24-8.403,8.27
		c-11.614,0.044-23.223,0.015-34.837,0.01c-11.085,0-22.17,0.069-33.25-0.039c-5.923-0.055-7.486-1.776-7.486-7.601
		c-0.01-9.63,0.191-19.27-0.101-28.895c-0.118-4.053,0.521-6.271,5.202-5.548c1.751,0.267,4.216,0.089,4.161-2.425
		c-0.054-2.396-2.379-2.444-4.246-2.459c-5.278-0.04-10.559-0.074-15.834,0.01c-2.237,0.034-5.676-0.723-5.671,2.499
		c0.004,3.331,3.533,2.46,5.69,2.375c2.826-0.113,3.574,0.9,3.539,3.627c-0.139,10.685,0.079,21.378-0.113,32.063
		c-0.095,4.963,2.27,7.937,6.457,9.853c2.929,1.341,6.077,1.658,9.278,1.652c11.085-0.019,22.165-0.01,33.25-0.01
		c10.689,0,21.376-0.014,32.066,0.016c2.91,0.004,5.81-0.016,8.65-0.738c6.289-1.604,9.032-5.106,9.046-11.575
		c0.016-9.634,0.004-19.27,0.004-28.899c0-5.513,0-5.498,5.474-5.934c1.713-0.133,3.835-0.164,3.74-2.509
		C154.946,116.836,152.893,116.647,151.145,116.633z"/>
	<path fill-rule="evenodd" clip-rule="evenodd" stroke="#000000" stroke-miterlimit="10" d="M179.111,96.423
		c-2.831-1.301-5.831-1.608-8.878-1.628c-5.67-0.03-11.35-0.203-17.014,0.059c-3.311,0.153-4.185-0.891-4.167-4.177
		c0.14-24.005,0.076-48.011,0.076-72.016c0-6.042-1.98-7.72-7.013-4.617c-8.794,5.423-17.037,5.462-25.554-0.159
		c-2.262-1.489-4.834-1.563-7.116-0.039c-8.655,5.784-17.207,5.77-25.852-0.025c-2.118-1.42-4.592-1.524-6.746-0.064
		c-8.778,5.958-17.284,5.611-26.26,0.055c-4.559-2.826-6.562-1.108-6.562,4.438C44.034,42.518,44,66.791,44.129,91.058
		c0.014,2.955-0.771,3.846-3.757,3.796c-7.245-0.129-14.529-0.242-21.744,0.316C10.755,95.779,7.44,99.837,7.44,107.557
		c-0.004,30.597-0.004,61.199,0,91.801c0.005,6.293,2.652,9.708,8.784,11.332c2.563,0.682,5.195,0.786,7.848,0.786
		c24.135-0.025,48.273-0.013,72.414-0.013c24.138,0,48.273-0.012,72.412,0.013c2.919,0,5.804-0.148,8.596-1.058
		c5.448-1.783,8.05-5.034,8.057-10.343c0.029-31.261-0.016-62.52,0.049-93.781C185.608,101.436,183.352,98.367,179.111,96.423z
		 M53.639,20.428c7.071,4.85,14.009,4.182,20.869-0.351c3.831-2.534,7.596-2.464,11.332,0.059c7.072,4.771,14.124,4.81,21.225,0.07
		c3.875-2.588,7.79-2.647,11.699-0.045c0.218,0.148,0.495,0.208,0.712,0.352c6.442,4.286,12.89,4.479,19.429,0.153
		c2.34-1.549,3.542-1.415,3.523,2.029c-0.125,22.827-0.129,45.655,0.009,68.488c0.021,3.128-1.064,3.682-3.87,3.657
		c-13.984-0.124-27.975-0.059-41.964-0.059c-14.118,0-28.242-0.06-42.359,0.049c-2.678,0.02-3.663-0.678-3.647-3.523
		c0.095-22.962,0.069-45.923-0.009-68.884C50.577,19.755,51.319,18.835,53.639,20.428z M178.095,198.545
		c0,6.162-1.469,7.716-7.674,7.726c-24.68,0.036-49.352,0.015-74.026,0.015c-24.278,0-48.562,0.01-72.838,0
		c-7.591-0.004-8.788-1.196-8.788-8.614c-0.005-30.217-0.005-60.437,0-90.653c0-5.31,1.677-7.131,7.085-7.131
		c49.749-0.04,99.497-0.04,149.239,0c5.365,0.005,7.001,1.821,7.001,7.215C178.105,137.584,178.101,168.063,178.095,198.545z"/>
	<path fill-rule="evenodd" clip-rule="evenodd" fill="none" stroke="#000000" stroke-miterlimit="10" d="M75.765,56.498
		c-3.772-0.435-7.552-0.456-11.318,0.01c-1.064,0.129-2.018,0.807-1.91,2.078c0.089,1.024,0.92,1.623,1.865,1.737
		c1.806,0.213,3.633,0.262,5.379,0.375c2.035-0.113,3.995-0.128,5.934-0.361c1.089-0.129,2.005-0.812,1.895-2.078
		C77.521,57.245,76.719,56.606,75.765,56.498z"/>
	<path fill-rule="evenodd" clip-rule="evenodd" fill="none" stroke="#000000" stroke-miterlimit="10" d="M64.609,68.144
		c1.812,0.227,3.658,0.221,5.488,0.315c1.836-0.094,3.683-0.089,5.493-0.322c1.05-0.133,2.064-0.736,2.05-2.014
		c-0.015-1.277-1-1.821-2.094-1.969c-3.652-0.48-7.319-0.504-10.967,0.02c-1.088,0.152-2.093,0.722-2.078,1.984
		C62.516,67.41,63.559,68.004,64.609,68.144z"/>
	<path fill-rule="evenodd" clip-rule="evenodd" fill="none" stroke="#000000" stroke-miterlimit="10" d="M65.076,42.503
		c1.687,0.203,3.4,0.192,5.29,0.282c1.52-0.094,3.232-0.114,4.918-0.327c1.208-0.148,2.45-0.663,2.355-2.147
		c-0.089-1.406-1.32-1.965-2.533-2.004c-3.275-0.104-6.556-0.129-9.833-0.025c-1.332,0.044-2.761,0.559-2.737,2.222
		C62.558,41.964,63.908,42.359,65.076,42.503z"/>
</g>
<g>
	<path fill-rule="evenodd" clip-rule="evenodd" fill="none" stroke="#FFFFFF" stroke-miterlimit="10" d="M-237.569,537.417
		c-4.736,4.369-9.397,8.816-14.237,13.068c-2.031,1.786-1.717,2.949,0,4.746c5.048,5.284,9.915,10.752,15.594,16.953
		c-4.322,0-7.548-0.023-10.772,0.01c-1.394,0.016-2.101-0.959-2.891-1.82c-2.49-2.722-4.901-5.518-7.459-8.176
		c-0.928-0.965-1.66-3.107-3.195-2.336c-1.767,0.892-3.558,2.342-3.891,4.662c-0.134,0.906-0.045,1.842-0.05,2.762
		c-0.021,4.805-1.762,6.066-6.458,4.918c-1.435-0.346-1.52-1.236-1.52-2.311c-0.004-15.548-0.026-31.092,0.011-46.635
		c0.006-3.742,2.954-1.969,4.686-2.287c2.176-0.4,3.37,0.303,3.331,2.921c-0.134,8.669-0.05,17.349-0.05,27.226
		c3.595-3.695,6.907-6.338,9.236-9.674c4.328-6.225,10.16-6.408,16.587-5.354C-238.293,536.531-237.929,536.976-237.569,537.417z"/>
	<path fill-rule="evenodd" clip-rule="evenodd" fill="none" stroke="#FFFFFF" stroke-miterlimit="10" d="M-295.988,535.066
		c2.921,0.035,5.767,0.545,8.545,1.415c5.554,1.741,5.708,2.321,2.794,7.166c-0.984,1.628-1.842,1.826-3.475,1.073
		c-2.78-1.291-5.751-1.875-8.85-1.578c-6.234,0.59-10.163,4.537-10.317,10.387c-0.158,6.072,3.678,10.393,9.945,11.154
		c3.508,0.426,6.925-0.089,9.919-1.93c3.736-2.291,3.618,1.351,4.849,2.905c1.609,2.019,0.719,3.211-1.339,4.2
		c-6.045,2.91-12.304,3.895-18.817,2.108c-9.058-2.488-14.276-11.01-12.925-20.849
		C-314.265,541.024-306.812,534.937-295.988,535.066z"/>
	<path fill-rule="evenodd" clip-rule="evenodd" fill="none" stroke="#FFFFFF" stroke-miterlimit="10" d="M-306.382,630.198
		c-10.994,0.095-18.404-7.927-18.03-19.503c0.373-11.49,7.972-18.849,18.906-18.136c2.338,0.152,4.721,0.628,6.962,1.335
		c5.05,1.584,5.11,2.089,2.719,6.795c-0.889,1.752-1.67,2.436-3.56,1.341c-1.604-0.925-3.432-1.292-5.307-1.421
		c-7.129-0.508-11.857,3.619-11.946,10.492c-0.09,7.031,4.721,11.491,11.901,11.064c2.021-0.118,4.02-0.56,5.611-1.697
		c2.399-1.712,3.267-0.866,4.607,1.425c1.98,3.39,0.841,4.878-2.295,6.155C-299.907,629.301-303.031,630.208-306.382,630.198z"/>
	<path fill-rule="evenodd" clip-rule="evenodd" fill="none" stroke="#FFFFFF" stroke-miterlimit="10" d="M-179.696,557.443
		c0-3.691-0.218-7.402,0.063-11.073c0.253-3.263-1.037-4.267-4.053-3.896c-2.36,0.287-3.971-0.039-3.919-3.217
		c0.051-2.801,0.921-3.93,3.635-3.469c3.58,0.604,4.828-0.965,4.291-4.385c-0.119-0.771,0.097-1.598-0.037-2.364
		c-0.707-4.005,1.168-4.97,4.839-4.692c2.325,0.174,3.441,0.748,3.164,3.202c-0.119,1.044,0.099,2.122-0.039,3.163
		c-0.5,3.701,0.436,5.908,4.778,5.086c2.485-0.471,3.111,0.836,3.104,3.167c-0.016,2.351-0.385,3.969-3.201,3.509
		c-3.88-0.629-4.906,1.033-4.752,4.801c0.303,7.239-0.094,14.509,0.165,21.758c0.132,3.707-2.109,3.063-4.312,3.207
		c-2.484,0.158-3.985-0.248-3.786-3.326C-179.508,565.109-179.696,561.269-179.696,557.443z"/>
	<path fill-rule="evenodd" clip-rule="evenodd" fill="none" stroke="#FFFFFF" stroke-miterlimit="10" d="M-179.337,614.708
		c0-3.826-0.14-7.656,0.051-11.471c0.132-2.613-0.791-3.667-3.37-3.296c-2.551,0.37-3.813-0.346-3.774-3.335
		c0.039-2.787,0.934-3.915,3.653-3.494c2.848,0.436,3.794-0.871,3.467-3.563c-0.142-1.173,0.136-2.399-0.052-3.558
		c-0.6-3.652,1.062-4.527,4.423-4.28c2.139,0.153,3.227,0.608,2.988,2.925c-0.122,1.172,0.104,2.385-0.046,3.553
		c-0.438,3.449,0.253,5.651,4.48,4.953c2.948-0.49,2.593,1.732,2.643,3.583c0.045,1.86-0.025,3.662-2.624,3.196
		c-4.185-0.742-4.657,1.431-4.542,4.914c0.232,7.244-0.065,14.51,0.13,21.76c0.078,3.092-1.635,2.964-3.753,2.979
		c-2.136,0.011-3.894,0.074-3.72-2.993C-179.167,622.636-179.337,618.667-179.337,614.708z"/>
	<path fill-rule="evenodd" clip-rule="evenodd" fill="none" stroke="#FFFFFF" stroke-miterlimit="10" d="M-242.537,611.056
		c0-4.993,0.142-9.99-0.056-14.979c-0.119-3.014,1.546-3.029,3.717-3.004c2.108,0.024,3.781-0.1,3.73,2.969
		c-0.158,10.253-0.146,20.506-0.007,30.755c0.046,3.267-2,2.683-3.918,2.751c-1.939,0.064-3.615,0.174-3.517-2.721
		C-242.404,621.577-242.537,616.317-242.537,611.056z"/>
	<path fill-rule="evenodd" clip-rule="evenodd" fill="none" stroke="#FFFFFF" stroke-miterlimit="10" d="M-234.213,583.769
		c-0.145,2.376-1.581,4.148-4.54,4.346c-2.766,0.188-5.046-2.123-4.867-4.959c0.183-2.895,1.785-4.582,4.758-4.65
		C-236.163,578.445-234.237,580.474-234.213,583.769z"/>
	<path fill-rule="evenodd" clip-rule="evenodd" fill="none" stroke="#FFFFFF" stroke-miterlimit="10" d="M-378.811,611.997
		c6.398-5.448,6.67-12.861,4.646-20.363c-1.816-6.74-6.938-9.769-13.574-10.105c-6.705-0.336-13.439-0.208-20.16-0.336
		c-1.735-0.03-2.256,0.792-2.252,2.415c0.031,14.504,0.065,29.014-0.019,43.523c-0.02,3.194,2.163,2.393,3.805,2.354
		c1.729-0.043,4.277,1.025,4.146-2.448c-0.108-2.896,0.06-5.806-0.043-8.706c-0.064-1.898,0.713-2.4,2.543-2.508
		c9.115-0.55,9.115-0.604,13.484,7.631c0.742,1.4,1.556,2.766,2.212,4.201c0.629,1.386,1.595,1.944,3.104,1.895
		c2.217-0.073,4.442-0.02,7.453-0.02c-2.396-4.418-4.178-8.09-6.321-11.535C-381.338,615.5-381.36,614.167-378.811,611.997z
		 M-390.073,607.27c-3.015,0.085-6.049-0.104-9.057,0.065c-2.366,0.133-3.376-0.604-3.147-3.078
		c0.183-1.955,0.039-3.939,0.039-5.908c0-8.602,0-8.605,8.594-8.602c1.313,0,2.629-0.053,3.935,0.035
		c5.646,0.396,8.398,3.38,8.259,8.887C-381.583,604.113-384.542,607.103-390.073,607.27z"/>
	<path fill-rule="evenodd" clip-rule="evenodd" fill="none" stroke="#FFFFFF" stroke-miterlimit="10" d="M-386.104,523.931
		c-6.721-0.211-13.457,0.055-20.177-0.098c-2.608-0.064-3.419,0.826-3.366,3.389c0.144,6.854,0.049,13.713,0.049,20.571
		c0,7.121-0.019,14.242,0.021,21.364c0.005,1.231-0.331,2.598,1.614,3.047c5.181,1.203,6.958-0.068,6.962-5.26
		c0.006-0.926,0.119-1.866-0.02-2.766c-0.568-3.697,0.672-5.271,4.656-4.891c3.662,0.353,7.385,0.199,11.07,0.031
		c8.947-0.4,14.88-5.167,16.558-13.105C-365.965,533.126-372.729,524.347-386.104,523.931z M-386.882,550.822
		c-3.554,0.07-7.12-0.158-10.659,0.07c-2.875,0.188-3.731-0.97-3.489-3.639c0.164-1.824,0.03-3.681,0.03-5.521
		c0-9.328,0-9.328,9.193-9.328c1.713,0,3.426-0.05,5.132,0.035c6.345,0.307,9.433,3.395,9.339,9.264
		C-377.426,547.537-380.702,550.704-386.882,550.822z"/>
	<path fill-rule="evenodd" clip-rule="evenodd" fill="none" stroke="#FFFFFF" stroke-miterlimit="10" d="M-197.948,595.375
		c-5.794-3.944-11.883-3.633-18.02-0.713c-1.142,0.545-1.962,1.904-3.07-0.594c-0.919-2.078-3.82-0.955-5.788-0.816
		c-1.888,0.138-1.297,2-1.302,3.201c-0.051,7.379-0.024,14.762-0.019,22.141c0,7.774,0.081,15.553-0.043,23.327
		c-0.047,3.093,1.986,2.509,3.734,2.483c1.706-0.02,3.895,0.699,3.781-2.424c-0.121-3.424,0.15-6.863-0.07-10.279
		c-0.214-3.34,0.232-4.279,3.919-2.819c9.015,3.563,17.942,0.187,22.001-7.739C-188.311,612.318-190.609,600.373-197.948,595.375z
		 M-208.739,622.176c-7.418,0.044-9.955-2.716-9.955-10.817c0-7.429,3.3-10.863,10.396-10.818c5.934,0.04,10.04,4.483,9.995,10.807
		C-198.346,617.855-202.473,622.136-208.739,622.176z"/>
	<path fill-rule="evenodd" clip-rule="evenodd" fill="none" stroke="#FFFFFF" stroke-miterlimit="10" d="M-193.136,554.079
		c-0.346-9.784-6.932-17.339-16.558-18.814c-10.653-1.628-20.141,4.479-22.263,14.341c-2.236,10.396,3.117,19.393,13.41,22.209
		c6.403,1.752,12.771,1.336,19.032-0.939c2-0.729,3.37-1.609,2.068-3.979c-1.006-1.817-0.654-5.039-4.553-3.475
		c-4.108,1.648-8.489,1.836-12.843,0.865c-2.761-0.613-5.255-1.78-7.063-4.047c-0.538-0.684-1.435-1.41-0.89-2.41
		c0.441-0.816,1.418-0.475,2.152-0.484c4.088-0.03,8.171-0.016,12.259-0.016c4.087,0,8.181-0.129,12.257,0.045
		C-193.549,557.484-193.052,556.355-193.136,554.079z M-204.322,550.289c-2.764-0.075-5.529-0.02-8.297-0.025
		c-2.895-0.006-5.796-0.015-8.688,0c-1.797,0.006-2.07-0.757-1.154-2.172c2.291-3.549,5.762-4.908,9.77-5.003
		c4.027-0.101,7.521,1.177,9.871,4.71C-201.584,549.66-202.231,550.337-204.322,550.289z"/>
	<path fill-rule="evenodd" clip-rule="evenodd" fill="none" stroke="#FFFFFF" stroke-miterlimit="10" d="M-265.469,592.761
		c-9.884-1.559-18.187,4.053-20.333,13.742c-2.371,10.688,2.721,20.105,12.434,22.813c5.206,1.449,10.443,1.267,15.544-0.521
		c2.094-0.727,4.746-0.994,3.356-4.736c-1.131-3.042-2.204-4.581-5.503-2.78c-0.892,0.486-2.021,0.645-3.055,0.743
		c-5.149,0.488-10.06,0.088-13.665-4.301c-0.55-0.674-1.458-1.52-0.8-2.405c0.337-0.449,1.406-0.475,2.15-0.479
		c3.685-0.051,7.373-0.025,11.063-0.025c3.687-0.006,7.372-0.029,11.059,0.01c1.486,0.01,2.401-0.246,2.619-2.079
		C-249.517,603.683-256.527,594.171-265.469,592.761z M-261.011,607.785c-2.494-0.084-4.992-0.02-7.486-0.02
		c-2.366,0-4.731-0.044-7.096,0.016c-1.976,0.049-2.821-0.48-1.59-2.461c2.064-3.324,5.151-4.749,8.95-4.789
		c3.646-0.039,6.677,1.217,8.696,4.424C-258.413,606.737-258.413,607.87-261.011,607.785z"/>
	<path fill-rule="evenodd" clip-rule="evenodd" fill="none" stroke="#FFFFFF" stroke-miterlimit="10" d="M-344.725,592.851
		c-9.968-1.896-18.726,3.741-20.928,13.46c-2.458,10.86,2.73,20.407,12.648,23.061c5.221,1.399,10.403,1.034,15.568-0.6
		c3.113-0.979,4.296-2.315,2.749-5.675c-0.991-2.174-1.715-3.365-4.228-2.119c-1.155,0.574-2.512,0.877-3.806,1.016
		c-5.29,0.553-10.334,0.158-13.981-4.459c-0.463-0.59-1.139-1.271-0.781-2.104c0.391-0.91,1.355-0.594,2.078-0.6
		c3.691-0.039,7.384-0.02,11.075-0.02c3.69,0,7.383-0.006,11.074,0c1.338,0,2.526,0.119,2.841-1.821
		C-329.033,604.539-336.106,594.488-344.725,592.851z M-340.762,607.781c-2.628-0.064-5.254-0.016-7.884-0.016
		c-2.362,0-4.729-0.044-7.091,0.016c-1.949,0.049-2.379-0.674-1.391-2.326c2.098-3.514,5.33-4.943,9.265-4.93
		c3.652,0.016,6.65,1.371,8.581,4.633C-338.258,606.879-338.519,607.83-340.762,607.781z"/>
	<path fill-rule="evenodd" clip-rule="evenodd" fill="none" stroke="#FFFFFF" stroke-miterlimit="10" d="M-342,535.066
		c-11.568,0.039-19.861,8.057-19.762,19.098c0.104,10.792,8.437,18.68,19.793,18.719c11.56,0.04,19.934-7.927,19.917-18.951
		C-322.066,542.865-330.35,535.033-342,535.066z M-341.781,564.802c-6.744,0.045-11.476-4.438-11.471-10.867
		c0.009-6.428,4.78-10.967,11.465-10.916c6.514,0.049,11.184,4.479,11.297,10.713C-330.371,560.15-335.067,564.753-341.781,564.802z
		"/>
	<g>
		<path fill-rule="evenodd" clip-rule="evenodd" fill="none" stroke="#FFFFFF" stroke-miterlimit="10" d="M-508.102,634.671
			c-24.141,0-48.279-0.012-72.414,0.014c-2.652,0-5.284-0.104-7.848-0.786c-6.131-1.624-8.778-5.038-8.784-11.331
			c-0.004-30.604-0.004-61.205,0-91.802c0-7.72,3.315-11.778,11.188-12.387c7.215-0.559,14.499-0.445,21.744-0.316
			c2.985,0.05,3.771-0.841,3.757-3.796c-0.129-24.268-0.095-48.54-0.104-72.809c0-5.547,2.003-7.264,6.562-4.438
			c8.976,5.557,17.482,5.903,26.26-0.055c2.154-1.461,4.628-1.355,6.746,0.064c8.645,5.794,17.196,5.809,25.852,0.024
			c2.282-1.524,4.854-1.45,7.116,0.039c8.517,5.622,16.76,5.583,25.554,0.159c5.033-3.104,7.013-1.426,7.013,4.617
			c0,24.004,0.064,48.01-0.076,72.016c-0.019,3.286,0.855,4.33,4.167,4.177c5.664-0.263,11.344-0.089,17.014-0.06
			c3.048,0.02,6.048,0.328,8.878,1.629c4.241,1.943,6.497,5.012,6.488,9.871c-0.065,31.262-0.021,62.52-0.049,93.781
			c-0.007,5.309-2.609,8.561-8.057,10.343c-2.792,0.909-5.676,1.058-8.596,1.058C-459.829,634.66-483.963,634.671-508.102,634.671z"
			/>
		<path fill-rule="evenodd" clip-rule="evenodd" fill="none" stroke="#FFFFFF" stroke-miterlimit="10" d="M-433.493,523.095
			c-49.743-0.039-99.49-0.039-149.239,0c-5.409,0-7.085,1.822-7.085,7.132c-0.005,30.216-0.005,60.437,0,90.653
			c0,7.418,1.197,8.609,8.788,8.613c24.277,0.011,48.561,0,72.838,0c24.674,0,49.346,0.021,74.026-0.014
			c6.205-0.01,7.674-1.564,7.674-7.727c0.006-30.481,0.01-60.96,0-91.442C-426.491,524.917-428.128,523.101-433.493,523.095z
			 M-453.296,544.77c-5.474,0.437-5.474,0.421-5.474,5.934c0,9.63,0.011,19.265-0.004,28.899c-0.014,6.469-2.757,9.971-9.046,11.574
			c-2.84,0.723-5.74,0.743-8.65,0.738c-10.69-0.029-21.377-0.016-32.066-0.016c-11.085,0-22.165-0.01-33.25,0.01
			c-3.201,0.006-6.349-0.311-9.278-1.652c-4.187-1.916-6.552-4.889-6.457-9.852c0.192-10.685-0.026-21.379,0.113-32.063
			c0.035-2.727-0.712-3.74-3.539-3.627c-2.158,0.084-5.686,0.955-5.69-2.376c-0.005-3.222,3.434-2.464,5.671-2.499
			c5.275-0.084,10.556-0.049,15.834-0.01c1.867,0.016,4.192,0.064,4.246,2.459c0.055,2.514-2.409,2.692-4.161,2.426
			c-4.681-0.723-5.32,1.494-5.202,5.547c0.292,9.625,0.09,19.266,0.101,28.895c0,5.825,1.563,7.547,7.486,7.602
			c11.08,0.108,22.165,0.039,33.25,0.039c11.614,0.005,23.223,0.034,34.837-0.01c6.969-0.029,8.397-1.5,8.403-8.27
			c0-10.029-0.074-20.056,0.044-30.087c0.035-2.573-0.44-3.89-3.409-3.716c-2.193,0.129-5.784,0.855-5.766-2.326
			c0.026-3.469,3.696-2.489,6.028-2.543c5.275-0.114,10.554-0.055,15.834-0.006c1.748,0.016,3.801,0.203,3.885,2.42
			C-449.461,544.607-451.583,544.636-453.296,544.77z"/>
		<path fill-rule="evenodd" clip-rule="evenodd" fill="none" stroke="#FFFFFF" stroke-miterlimit="10" d="M-462.159,445.904
			c0.019-3.445-1.183-3.578-3.523-2.029c-6.539,4.325-12.987,4.132-19.429-0.154c-0.218-0.143-0.495-0.203-0.712-0.352
			c-3.91-2.602-7.825-2.543-11.699,0.045c-7.101,4.74-14.152,4.701-21.225-0.069c-3.736-2.522-7.501-2.593-11.332-0.059
			c-6.86,4.532-13.797,5.2-20.869,0.351c-2.32-1.592-3.063-0.672-3.052,1.994c0.078,22.962,0.104,45.923,0.009,68.885
			c-0.015,2.846,0.97,3.543,3.647,3.523c14.118-0.109,28.241-0.049,42.359-0.049c13.989,0,27.98-0.066,41.964,0.059
			c2.806,0.025,3.89-0.529,3.87-3.657C-462.289,491.558-462.284,468.73-462.159,445.904z M-539.313,461.492
			c3.276-0.104,6.557-0.08,9.833,0.024c1.213,0.039,2.444,0.599,2.533,2.004c0.095,1.484-1.147,1.999-2.355,2.147
			c-1.686,0.213-3.399,0.232-4.918,0.326c-1.89-0.089-3.603-0.078-5.29-0.281c-1.168-0.145-2.518-0.539-2.539-2
			C-542.074,462.05-540.644,461.536-539.313,461.492z M-540.342,469.449c3.89-0.535,7.798-0.525,11.693-0.006
			c0.959,0.129,1.708,0.881,1.708,1.887c0,1.014-0.778,1.736-1.727,1.855c-1.936,0.242-3.895,0.291-5.89,0.42
			c-1.914-0.129-3.874-0.184-5.805-0.436c-0.936-0.129-1.732-0.842-1.723-1.865C-542.07,470.289-541.292,469.578-540.342,469.449z
			 M-526.977,481.468c0.11,1.268-0.806,1.949-1.895,2.078c-1.939,0.232-3.898,0.248-5.934,0.361
			c-1.746-0.113-3.573-0.162-5.379-0.375c-0.945-0.115-1.776-0.713-1.865-1.738c-0.108-1.271,0.846-1.949,1.91-2.078
			c3.766-0.465,7.546-0.444,11.318-0.01C-527.867,479.815-527.066,480.455-526.977,481.468z M-540.008,487.383
			c3.648-0.524,7.315-0.501,10.967-0.021c1.094,0.148,2.079,0.692,2.094,1.97c0.015,1.277-1,1.881-2.05,2.014
			c-1.81,0.233-3.657,0.228-5.493,0.321c-1.83-0.094-3.676-0.088-5.488-0.314c-1.05-0.14-2.093-0.734-2.108-1.986
			C-542.101,488.105-541.096,487.536-540.008,487.383z M-528.788,509.062c-3.775,0.608-7.565,0.594-11.347,0.014
			c-1.103-0.168-2.068-0.852-1.95-2.088c0.119-1.178,1.165-1.801,2.238-1.885c1.826-0.134,3.666-0.035,5.498-0.035
			c0.004-0.084,0.004-0.168,0.004-0.247c1.831,0.104,3.676,0.099,5.483,0.36c1.039,0.154,2.029,0.777,1.915,2.104
			C-527.04,508.343-527.827,508.904-528.788,509.062z M-528.717,501.357c-1.936,0.277-3.904,0.36-5.677,0.509
			c-2.029-0.143-3.87-0.167-5.676-0.446c-1.029-0.157-2.063-0.736-2.015-2.053c0.041-1.078,0.891-1.662,1.808-1.811
			c3.898-0.639,7.823-0.707,11.718,0.049c0.955,0.184,1.682,0.842,1.633,1.936C-526.977,500.634-527.797,501.223-528.717,501.357z
			 M-512.047,469.156c11.337-0.035,22.675-0.035,34.007,0.01c1.574,0.006,3.633,0.129,3.583,2.184
			c-0.044,2.004-2.083,2.098-3.672,2.112c-5.801,0.039-11.6,0.015-17.398,0.015c-5.538-0.004-11.071,0.02-16.608-0.02
			c-1.604-0.016-3.633-0.174-3.592-2.188C-515.683,469.285-513.635,469.162-512.047,469.156z M-474.486,481.716
			c-0.094,2.191-2.395,2.043-4.079,2.063c-4.072,0.056-8.15,0.021-12.228,0.021c-4.071-0.006-8.148,0.037-12.228-0.021
			c-1.681-0.029-3.919,0.059-3.889-2.246c0.021-1.989,2.108-2.049,3.692-2.054c8.283-0.034,16.567-0.044,24.851,0.005
			C-476.698,479.49-474.387,479.419-474.486,481.716z M-478.212,509.369c-5.522,0.084-11.041,0.029-16.563,0.034
			c-5.652,0.005-11.307,0.06-16.959-0.024c-1.648-0.025-3.969,0.02-3.978-2.212c-0.01-2.218,2.232-2.222,3.934-2.228
			c11.174-0.023,22.349-0.029,33.522,0.01c1.692,0.006,3.87,0.065,3.775,2.366C-474.562,509.299-476.689,509.343-478.212,509.369z
			 M-477.97,501.679c-4.35,0.088-8.7,0.028-13.05,0.023c-4.22-0.004-8.442,0.055-12.658-0.034c-1.44-0.034-3.192-0.312-3.276-2.144
			c-0.089-1.924,1.731-2.261,3.123-2.275c8.699-0.09,17.403-0.084,26.102-0.016c1.421,0.01,3.272,0.322,3.277,2.139
			C-474.447,501.436-476.397,501.648-477.97,501.679z M-478.114,491.548c-5.651,0.04-11.307,0.015-16.959,0.01
			c-5.65,0-11.302,0.016-16.954-0.01c-1.618-0.01-3.592-0.188-3.722-2.094c-0.143-2.073,1.94-2.301,3.479-2.311
			c11.436-0.063,22.872-0.068,34.309-0.004c1.529,0.009,3.607,0.197,3.514,2.275C-474.535,491.38-476.524,491.535-478.114,491.548z
			 M-477.852,465.816c-8.565,0.089-17.132,0.084-25.699,0.005c-1.538-0.015-3.571-0.272-3.409-2.4
			c0.128-1.687,1.91-1.989,3.415-1.999c4.35-0.039,8.7-0.016,13.045-0.016c4.22,0.006,8.437-0.023,12.653,0.016
			c1.5,0.016,3.285,0.316,3.414,2.01C-474.274,465.558-476.323,465.802-477.852,465.816z"/>
	</g>
</g>
</svg>
